<?xml version="1.0" encoding="UTF-8"?>
<svg id="a" xmlns="http://www.w3.org/2000/svg" viewBox="0 0 1300 1300">
  <defs>
    <style>.b{fill:#fff;}.c{fill:#d2121c;}.d{fill:#25221d;}</style>
  </defs>
  <circle class="b" cx="650" cy="650" r="643.48" />
  <path class="d" d="M78.92,552.97l7.24-31.06c1.63-7,3.41-12.23,5.35-15.65,2.59-4.59,6.16-8.23,10.7-10.89,4.53-2.66,9.71-4.28,15.52-4.86,5.8-.58,12.65,.05,20.54,1.89,6.92,1.62,12.69,3.87,17.31,6.76,5.63,3.53,9.88,7.68,12.77,12.48,2.17,3.62,3.49,8.12,3.92,13.51,.33,4.03-.24,9.18-1.71,15.46l-7.47,31.97-84.16-19.6Zm18.2-13.67l55.74,12.98,2.97-12.69c1.1-4.74,1.63-8.23,1.57-10.47-.04-2.9-.67-5.46-1.9-7.66-1.22-2.21-3.58-4.33-7.09-6.35-3.5-2.04-8.5-3.81-15.01-5.32-6.52-1.51-11.65-2.1-15.38-1.76-3.75,.34-6.84,1.32-9.29,2.93-2.43,1.6-4.36,3.92-5.78,6.94-1.09,2.25-2.44,6.84-4.06,13.76l-1.78,7.64Z" />
  <path class="d" d="M149.04,459.33c-7.94-3.77-14.06-8.13-18.34-13.09-3.11-3.67-5.54-7.76-7.25-12.34-1.7-4.57-2.46-9.04-2.24-13.43,.24-5.84,1.87-11.95,4.89-18.3,5.47-11.51,13.41-19.03,23.82-22.53,10.41-3.53,21.96-2.27,34.7,3.76,12.6,5.99,20.84,14.08,24.69,24.31,3.87,10.24,3.1,21.08-2.36,32.55-5.51,11.62-13.43,19.18-23.77,22.66-10.32,3.49-21.71,2.29-34.14-3.6m7.18-16.51c8.84,4.21,16.52,5.33,23.01,3.42,6.5-1.93,11.24-6.01,14.23-12.3,2.99-6.29,3.16-12.52,.54-18.71-2.61-6.16-8.44-11.42-17.5-15.71-8.95-4.25-16.56-5.46-22.83-3.61-6.24,1.83-10.93,5.99-14.01,12.49-3.08,6.49-3.34,12.8-.77,18.88,2.57,6.1,8.35,11.28,17.34,15.53" />
  <path class="d" d="M184.56,271.33l4.95-6.35c3.94,3.64,6.1,7.7,6.5,12.15,.38,4.47-1.03,8.77-4.24,12.87-3.2,4.14-7.02,6.58-11.44,7.3-4.41,.71-8.88-.38-13.38-3.29l4.95-6.37c2.38,1.48,4.64,2.01,6.81,1.56,2.17-.45,4.25-1.97,6.22-4.51,1.98-2.55,2.92-4.93,2.81-7.14-.09-2.23-1.15-4.29-3.19-6.23m53.59,55.67l-11.5-8.93,23.08-29.72,27.18,21.14c.56,5.05-.22,11.13-2.35,18.27-2.14,7.13-5.39,13.51-9.75,19.13-5.54,7.14-11.88,12.19-19,15.18-7.11,2.99-14.5,3.65-22.14,1.98-7.64-1.66-14.74-5.04-21.3-10.13-7.1-5.51-12.26-11.91-15.46-19.17-3.22-7.28-4.06-14.92-2.55-22.97,1.13-6.14,4.24-12.45,9.3-18.98,6.57-8.48,13.49-13.71,20.74-15.72,7.26-2.01,14.55-1.26,21.88,2.25l-8.06,15.68c-4.11-1.66-8.16-1.89-12.16-.75-4,1.15-7.55,3.71-10.63,7.68-4.68,6.03-6.49,12.3-5.43,18.8,1.06,6.53,5.35,12.71,12.87,18.53,8.08,6.31,15.56,9.23,22.41,8.78,6.86-.46,12.54-3.61,17.08-9.45,2.24-2.88,3.92-6.23,5.04-10,1.13-3.77,1.68-7.34,1.68-10.67l-8.67-6.73-12.24,15.79Z" />
  <path class="d" d="M252.28,228.99l13.38-11.19,30.03,35.91c4.76,5.7,8.01,9.27,9.76,10.67,2.85,2.23,6.03,3.27,9.56,3.11,3.53-.16,7.15-1.79,10.9-4.93,3.8-3.18,6.01-6.34,6.65-9.52,.62-3.16,.2-6.05-1.3-8.62-1.49-2.61-4.44-6.52-8.82-11.76l-30.68-36.69,13.4-11.19,29.12,34.83c6.65,7.95,11,13.87,13.02,17.77,2.01,3.9,3.01,7.76,2.96,11.67-.05,3.9-1.15,7.87-3.29,11.92-2.14,4.06-5.82,8.31-11.08,12.68-6.34,5.31-11.74,8.59-16.24,9.87-4.49,1.25-8.67,1.53-12.52,.76-3.87-.73-7.15-2.14-9.9-4.19-4.06-3.07-9.19-8.32-15.39-15.75l-29.57-35.36Z" />
  <path class="d" d="M370.49,210.36l14.14-9.54c3.61,4.53,7.43,7.22,11.44,8.09,4.02,.87,8.38,.03,13.03-2.5,4.95-2.67,8.1-5.73,9.49-9.18,1.36-3.45,1.29-6.57-.22-9.38-.98-1.81-2.33-3.04-4.07-3.73-1.74-.68-4.18-.79-7.3-.3-2.13,.34-6.83,1.45-14.08,3.33-9.34,2.42-16.47,3.04-21.38,1.86-6.94-1.66-12.04-5.51-15.29-11.51-2.1-3.88-2.96-8.09-2.59-12.65,.38-4.55,2.14-8.84,5.32-12.83,3.18-3.99,7.68-7.59,13.53-10.74,9.54-5.17,17.85-6.96,24.94-5.38,7.09,1.56,12.64,5.77,16.66,12.62l-14.97,8.97c-2.78-3.53-5.7-5.59-8.8-6.14-3.08-.53-6.79,.37-11.1,2.7-4.47,2.42-7.45,5.21-8.99,8.42-.98,2.06-.95,4.06,.12,6.04,.96,1.79,2.55,2.92,4.76,3.38,2.82,.57,8.43-.29,16.86-2.57,8.43-2.28,14.93-3.43,19.53-3.49,4.59-.04,8.77,1.02,12.57,3.18,3.8,2.19,6.98,5.67,9.58,10.47,2.36,4.36,3.35,9.1,3,14.21-.37,5.1-2.27,9.79-5.67,14.04-3.43,4.24-8.46,8.13-15.05,11.72-9.61,5.2-18.19,6.98-25.74,5.32-7.56-1.67-14.13-6.46-19.74-14.42m42.16,36.16l-3.31-6.12c3.76-1.53,7.13-3.12,10.11-4.72,3.08-1.67,5.05-3.46,5.93-5.36,.69-1.45,.68-2.82-.01-4.14-.64-1.18-1.72-1.91-3.27-2.2-1.53-.29-3.43,.19-5.67,1.4-2.21,1.19-4.29,2.77-6.24,4.71l-1.43-5.86c2.2-2.38,4.85-4.43,7.97-6.11,4.32-2.35,8.1-3.16,11.39-2.47,3.27,.68,5.66,2.38,7.13,5.12,1.64,3.04,1.74,6.19,.29,9.43-1.95,4.4-6.07,8.29-12.31,11.69-4.47,2.42-7.98,3.95-10.56,4.64" />
  <path class="d" d="M500.54,90.71l17.1-3.49,9.33,45.88c1.48,7.28,2.66,11.96,3.52,14.01,1.44,3.33,3.73,5.76,6.92,7.29,3.18,1.55,7.15,1.83,11.93,.86,4.86-.98,8.31-2.7,10.37-5.2,2.06-2.5,3.05-5.23,2.96-8.21-.08-2.99-.8-7.83-2.17-14.54l-9.52-46.85,17.1-3.49,9.04,44.5c2.06,10.17,3.05,17.44,2.99,21.83-.08,4.37-1.06,8.27-2.95,11.66-1.9,3.39-4.75,6.38-8.57,8.95-3.81,2.54-9.07,4.52-15.76,5.88-8.09,1.63-14.42,1.95-18.98,.94-4.56-1.02-8.35-2.78-11.39-5.27-3.03-2.5-5.27-5.29-6.71-8.42-2.1-4.63-4.13-11.67-6.04-21.15l-9.19-45.18Z" />
  <polygon class="d" points="617.87 158.4 618.26 71.97 635.25 72.05 670.35 129.94 670.62 72.22 686.83 72.28 686.44 158.71 668.93 158.63 634.34 102.12 634.07 158.47 617.87 158.4" />
  <rect class="d" x="690.48" y="113.19" width="86.44" height="17.45" transform="translate(498.51 827.52) rotate(-81)" />
  <polygon class="d" points="787.01 177.97 783.32 86.26 801.37 91.91 803.17 159.49 842.45 104.75 860.13 110.27 804.8 183.52 787.01 177.97" />
  <polygon class="d" points="855.4 202.59 896.49 126.54 952.87 157.04 945.92 169.9 904.9 147.73 895.79 164.56 933.96 185.21 927.02 198.03 888.87 177.39 877.68 198.08 920.16 221.03 913.22 233.85 855.4 202.59" />
  <path class="d" d="M937.33,250.05l55.21-66.5,28.26,23.47c7.1,5.89,11.77,10.78,14,14.63,2.23,3.87,3.04,8.14,2.44,12.8-.6,4.67-2.52,8.97-5.78,12.9-4.15,4.98-9.04,7.9-14.66,8.7-5.63,.81-11.74-.77-18.27-4.78,1.49,4.1,2.36,7.97,2.55,11.55,.22,3.6-.22,9.31-1.3,17.14l-2.66,19.71-16.05-13.33,2.29-22.52c.84-8.04,1.21-13.25,1.05-15.67-.16-2.39-.73-4.43-1.74-6.11-1-1.68-3.07-3.8-6.14-6.37l-2.71-2.27-23.08,27.77-13.41-11.14Zm45.29-27.23l9.92,8.24c6.45,5.36,10.71,8.43,12.76,9.2,2.05,.8,4.09,.91,6.1,.33,2.01-.58,3.84-1.87,5.5-3.88,1.86-2.23,2.77-4.53,2.73-6.88-.07-2.38-1.03-4.64-2.9-6.81-.98-1.05-4.17-3.86-9.6-8.36l-10.49-8.7-14.01,16.87Z" />
  <path class="d" d="M1032.19,296.44l11.93,12.19c-3.8,4.37-5.77,8.61-5.89,12.72-.12,4.13,1.48,8.23,4.81,12.37,3.53,4.37,7.1,6.94,10.74,7.67,3.64,.73,6.69,.1,9.18-1.89,1.59-1.29,2.57-2.84,2.93-4.68,.38-1.83,.03-4.24-1.02-7.24-.72-2.02-2.66-6.46-5.81-13.25-4.04-8.74-5.93-15.65-5.66-20.7,.38-7.11,3.23-12.81,8.57-17.1,3.42-2.76,7.41-4.37,11.97-4.82,4.55-.45,9.07,.52,13.57,2.92,4.51,2.4,8.85,6.2,13,11.36,6.79,8.47,10.06,16.33,9.79,23.58-.27,7.25-3.42,13.47-9.43,18.67l-11.54-13.13c3-3.37,4.49-6.61,4.47-9.75-.03-3.14-1.57-6.61-4.66-10.44-3.16-3.95-6.46-6.41-9.88-7.33-2.2-.6-4.18-.2-5.92,1.21-1.6,1.28-2.42,3.04-2.46,5.31-.07,2.86,1.76,8.25,5.54,16.13,3.73,7.86,6.07,14.05,6.95,18.56,.87,4.52,.58,8.84-.87,12.96-1.45,4.11-4.32,7.89-8.57,11.31-3.87,3.08-8.35,4.93-13.44,5.5-5.09,.56-10.03-.45-14.82-3.05-4.78-2.62-9.54-6.83-14.24-12.69-6.85-8.51-10.14-16.64-9.87-24.37,.27-7.72,3.81-15.05,10.63-22" />
  <polygon class="d" points="1068.83 393.19 1143.33 349.37 1152.18 364.42 1077.67 408.22 1068.83 393.19" />
  <polygon class="d" points="1100.05 453.14 1166.37 425.58 1156.51 401.91 1170.02 396.29 1196.38 459.71 1182.87 465.33 1173.06 441.69 1106.75 469.26 1100.05 453.14" />
  <polygon class="d" points="1128.58 539.52 1164.18 531.96 1206.57 490.59 1210.82 510.62 1181.58 537.6 1219.17 550 1223.33 569.67 1167.68 549.01 1132.21 556.54 1128.58 539.52" />
  <path class="d" d="M868.1,1145.61c0,7.4-6,13.38-13.4,13.38s-13.38-5.99-13.38-13.38,6-13.38,13.38-13.38,13.4,5.99,13.4,13.38" />
  <path class="c" d="M649.84,998.47V301.53c192.6,0,348.63,156.04,348.63,348.44s-156.03,348.5-348.63,348.5m-254.89-117.1c0-9.75,7.98-17.58,17.66-17.58s17.61,7.83,17.61,17.58-7.83,17.63-17.61,17.63-17.66-7.81-17.66-17.63m81.22,0c0-15.38,12.41-27.81,27.72-27.81s27.77,12.43,27.77,27.81-12.43,27.75-27.77,27.75-27.72-12.46-27.72-27.75m91.39,0c0-20.16,16.25-36.31,36.46-36.31s36.37,16.15,36.37,36.31-16.36,36.52-36.37,36.52-36.46-16.41-36.46-36.52m-242.23-108.54c0-13.15,10.67-23.95,23.89-23.95s23.88,10.79,23.88,23.95-10.67,23.81-23.88,23.81-23.89-10.64-23.89-23.81m259.62,195.4c0-15.34,12.39-27.64,27.72-27.64s27.72,12.3,27.72,27.64-12.37,27.79-27.72,27.79-27.72-12.35-27.72-27.79m-162.56-195.4c0-21.2,17.19-38.48,38.44-38.48s38.32,17.28,38.32,38.48-17.19,38.31-38.32,38.31-38.44-17.09-38.44-38.31m118.79,0c0-27.5,22.24-49.71,49.63-49.71s49.57,22.21,49.57,49.71-22.15,49.66-49.57,49.66-49.63-22.3-49.63-49.66m-22.18,189.8c0-8.38,6.86-15.03,15.11-15.03s15.15,6.65,15.15,15.03-6.79,15.15-15.15,15.15-15.11-6.83-15.11-15.15m7.07-312.67c0-31.48,25.52-57.1,57.1-57.1s57.22,25.62,57.22,57.1-25.55,57.18-57.22,57.18-57.1-25.47-57.1-57.18m-121.56,0c0-23.96,19.44-43.26,43.34-43.26s43.36,19.3,43.36,43.26-19.36,43.33-43.36,43.33-43.34-19.4-43.34-43.33m-102.96,0c0-17,13.89-30.79,30.83-30.79s30.95,13.79,30.95,30.79-13.86,30.9-30.95,30.9-30.83-13.82-30.83-30.9m239.64-122.76c0-27.38,22.24-49.52,49.63-49.52s49.57,22.14,49.57,49.52-22.15,49.67-49.57,49.67-49.63-22.19-49.63-49.67m-118.79,0c0-21.2,17.19-38.31,38.44-38.31s38.32,17.21,38.32,38.31-17.19,38.46-38.32,38.46-38.44-17.13-38.44-38.46m162.56-195.42c0-15.33,12.39-27.79,27.72-27.79s27.72,12.46,27.72,27.79-12.37,27.65-27.72,27.65-27.72-12.46-27.72-27.65m-259.62,195.42c0-13.14,10.67-23.82,23.89-23.82s23.88,10.68,23.88,23.82-10.67,23.92-23.88,23.92-23.89-10.66-23.89-23.92m242.23-108.54c0-20.12,16.25-36.38,36.46-36.38s36.37,16.26,36.37,36.38-16.36,36.42-36.37,36.42-36.46-16.26-36.46-36.42m-91.39,0c0-15.3,12.41-27.76,27.72-27.76s27.77,12.46,27.77,27.76-12.43,27.65-27.77,27.65-27.72-12.3-27.72-27.65m-81.22,0c0-9.68,7.98-17.63,17.66-17.63s17.61,7.95,17.61,17.63-7.83,17.52-17.61,17.52-17.66-7.76-17.66-17.52m124.05-81.27c0-8.31,6.86-15.04,15.11-15.04s15.15,6.73,15.15,15.04-6.79,15.07-15.15,15.07-15.11-6.72-15.11-15.07" />
  <path class="c" d="M649.98,14.05C298.77,14.05,14.04,298.78,14.04,650s284.73,635.98,635.94,635.98,635.98-284.73,635.98-635.98S1001.27,14.05,649.98,14.05m0,1255.38c-342.1,0-619.47-277.29-619.47-619.43S307.88,30.55,649.98,30.55s619.42,277.35,619.42,619.44-277.32,619.43-619.42,619.43" />
  <path class="c" d="M649.98,199.37c-248.84,0-450.6,201.79-450.6,450.64s201.76,450.63,450.6,450.63,450.65-201.73,450.65-450.63-201.71-450.64-450.65-450.64m0,884.86c-239.74,0-434.19-194.39-434.19-434.22S410.24,215.79,649.98,215.79s434.26,194.43,434.26,434.23-194.4,434.22-434.26,434.22" />
  <polygon class="d" points="143.27 929.82 218.27 886.92 226.95 902.06 151.93 944.95 143.27 929.82" />
  <path class="d" d="M194.2,961.05l11.77,12.34c-3.86,4.34-5.86,8.54-6.05,12.65-.18,4.1,1.37,8.24,4.64,12.42,3.48,4.43,7.02,7.02,10.66,7.79,3.61,.79,6.68,.19,9.19-1.78,1.62-1.25,2.61-2.81,3-4.63,.38-1.83,.08-4.25-.92-7.25-.71-2.04-2.59-6.49-5.65-13.32-3.95-8.8-5.76-15.72-5.42-20.78,.48-7.1,3.39-12.76,8.78-16.97,3.46-2.73,7.47-4.29,12.03-4.68,4.55-.41,9.07,.64,13.55,3.1,4.47,2.47,8.74,6.31,12.84,11.54,6.68,8.54,9.87,16.43,9.49,23.67-.35,7.24-3.57,13.41-9.67,18.53l-11.36-13.25c3.04-3.33,4.56-6.57,4.59-9.69,0-3.14-1.48-6.64-4.52-10.51-3.14-3.99-6.39-6.46-9.8-7.44-2.19-.62-4.17-.26-5.95,1.13-1.6,1.26-2.44,3.01-2.51,5.27-.1,2.88,1.68,8.28,5.33,16.19,3.67,7.91,5.89,14.13,6.72,18.65,.83,4.53,.48,8.84-1.02,12.94-1.51,4.1-4.41,7.83-8.71,11.21-3.91,3.05-8.4,4.82-13.51,5.33-5.09,.49-10.02-.58-14.77-3.26-4.75-2.66-9.45-6.94-14.08-12.84-6.75-8.62-9.94-16.76-9.57-24.5,.38-7.71,4-15,10.91-21.87" />
  <polygon class="d" points="261.39 1078.89 308.78 1024.97 289.53 1008.04 299.18 997.06 350.76 1042.4 341.11 1053.37 321.9 1036.48 274.5 1090.41 261.39 1078.89" />
  <path class="d" d="M385.7,1166.69l-16.19-9.9,3.77-20.69-29.48-17.99-16.32,13.05-15.8-9.65,73.75-56.24,15.76,9.62-15.49,91.79Zm-9.61-45.92l6.53-33.58-26.65,21.3,20.12,12.29Z" />
  <polygon class="d" points="423.68 1183.84 452.67 1102.45 468.65 1108.13 482.62 1174.35 501.98 1120 517.25 1125.43 488.26 1206.84 471.77 1200.97 457.86 1136.19 438.95 1189.27 423.68 1183.84" />
  <path class="d" d="M549.25,1133.3l34.24,4.64c6.77,.91,11.8,1.87,15.04,2.89,3.24,1,6.07,2.59,8.46,4.75,2.39,2.14,4.26,4.82,5.61,8.02,1.34,3.24,1.76,6.69,1.26,10.4-.53,4-2.12,7.53-4.74,10.59-2.61,3.07-5.88,5.17-9.8,6.34,5.01,2.23,8.66,5.38,10.97,9.41,2.31,4.05,3.15,8.52,2.47,13.48-.53,3.88-1.95,7.55-4.26,10.98-2.29,3.45-5.17,6.05-8.61,7.82-3.43,1.78-7.48,2.61-12.15,2.5-2.93-.08-9.9-.83-20.93-2.24l-29.13-3.95,11.58-85.63Zm10.75,50.65l-3.1,22.9,15.99,2.16c6.24,.84,10.21,1.21,11.93,1.09,2.65-.11,4.89-.99,6.73-2.58,1.87-1.59,3.01-3.9,3.42-6.94,.35-2.57,.03-4.83-.99-6.8-.99-1.95-2.62-3.49-4.86-4.63-2.24-1.14-7.29-2.24-15.18-3.33l-13.95-1.87Zm4.62-34.05l-2.69,19.79,11.34,1.52c6.73,.94,10.93,1.4,12.6,1.43,3,.04,5.48-.67,7.38-2.12,1.94-1.48,3.08-3.6,3.45-6.35,.37-2.65-.07-4.9-1.3-6.75-1.24-1.86-3.27-3.15-6.11-3.88-1.7-.43-6.61-1.19-14.74-2.29l-9.92-1.34Z" />
  <path class="d" d="M650.01,1143.62l17.4-1.25,3.35,46.68c.52,7.41,1.09,12.18,1.67,14.35,1.02,3.48,2.97,6.18,5.95,8.12,2.95,1.94,6.87,2.73,11.71,2.39,4.93-.37,8.59-1.63,10.95-3.83,2.38-2.21,3.69-4.79,4-7.78,.29-2.97,.19-7.86-.3-14.69l-3.42-47.67,17.4-1.25,3.26,45.27c.72,10.34,.79,17.69,.15,22.03-.62,4.33-2.12,8.06-4.43,11.19-2.32,3.12-5.52,5.71-9.64,7.75-4.1,2.05-9.58,3.31-16.4,3.81-8.21,.58-14.54,.08-18.92-1.52-4.38-1.59-7.93-3.81-10.62-6.68-2.69-2.85-4.53-5.93-5.57-9.22-1.49-4.85-2.58-12.08-3.27-21.73l-3.3-45.98Z" />
  <polygon class="d" points="773.72 1216.11 751.54 1133.3 768.39 1128.79 786.8 1197.52 828.72 1186.31 832.48 1200.36 773.72 1216.11" />
  <path class="d" d="M953.48,1143.18l-14.31,8.33-31.45-53.92c-2.38,7.94-6.43,15.15-12.15,21.62l-7.57-12.99c3.01-3.39,5.73-8.06,8.12-14.05,2.39-5.96,3.08-11.69,2.06-17.19l11.59-6.76,43.71,74.95Z" />
  <path class="d" d="M985.37,1097.96l11.2-11.61c2.4,2.25,4.72,3.46,7,3.62,2.27,.14,4.45-.65,6.53-2.38,2.65-2.19,3.87-5.25,3.71-9.2-.18-3.95-3.18-9.94-8.99-18-.11,6.39-2.57,11.57-7.37,15.56-5.23,4.36-11.42,6.1-18.56,5.2-7.15-.87-13.41-4.55-18.79-11-5.61-6.75-8.13-13.85-7.55-21.3,.57-7.45,3.96-13.75,10.15-18.91,6.73-5.61,14.44-7.6,23.08-5.97,8.67,1.62,17.96,8.39,27.88,20.32,10.1,12.15,15.12,22.79,15.11,31.93-.04,9.11-3.65,16.67-10.87,22.68-5.2,4.32-10.55,6.42-16.06,6.33-5.5-.11-11-2.52-16.48-7.28m5.7-51.8c-3.42-4.11-7.03-6.5-10.79-7.21-3.76-.69-6.9,0-9.37,2.06-2.36,1.95-3.54,4.51-3.56,7.67-.01,3.15,1.74,6.83,5.27,11.06,3.56,4.29,7.02,6.73,10.38,7.33,3.35,.61,6.31-.15,8.86-2.25,2.43-2.04,3.69-4.72,3.76-8.05,.08-3.33-1.45-6.87-4.56-10.62" />
  <path class="d" d="M1054.41,1036.69l9.15-13.3c2.73,1.83,5.23,2.65,7.49,2.42,2.27-.22,4.28-1.34,6.05-3.41,2.24-2.58,2.96-5.8,2.13-9.68-.81-3.87-4.75-9.3-11.8-16.28,.92,6.31-.65,11.82-4.74,16.57-4.44,5.14-10.26,7.86-17.44,8.16-7.19,.3-13.97-2.31-20.34-7.79-6.64-5.73-10.29-12.31-10.93-19.76-.65-7.45,1.63-14.23,6.91-20.32,5.73-6.62,12.99-9.86,21.8-9.68,8.8,.19,19.07,5.35,30.81,15.5,11.96,10.33,18.67,19.98,20.13,29,1.48,9-.87,17.05-7,24.16-4.41,5.12-9.35,8.08-14.8,8.86-5.43,.81-11.25-.69-17.44-4.45m-2.88-52.05c-4.05-3.49-7.98-5.27-11.82-5.35-3.83-.05-6.8,1.13-8.91,3.57-2.01,2.31-2.74,5.02-2.24,8.14,.5,3.1,2.84,6.46,6.99,10.06,4.24,3.65,8.04,5.48,11.46,5.54,3.42,.04,6.2-1.18,8.36-3.68,2.09-2.42,2.88-5.27,2.42-8.55-.48-3.29-2.57-6.56-6.26-9.73" />
  <path class="d" d="M1069.7,939.28l-13.13-8.01,29.52-48.35,10.25,6.27c1.49,6.38,4.66,13.87,9.48,22.49,4.83,8.62,10.71,16.52,17.66,23.73,6.95,7.21,13.68,12.79,20.21,16.72l-8.34,13.63c-10.05-6.45-19.15-14.89-27.33-25.34-8.16-10.45-14.4-21.56-18.71-33.3l-19.63,32.16Z" />
</svg>